<svg width="460" height="69" viewBox="0 0 460 69" fill="none" xmlns="http://www.w3.org/2000/svg">
<path d="M38.4884 16.8846C38.4893 17.5106 38.6342 18.1281 38.9119 18.6892C39.1896 19.2503 39.5926 19.74 40.0899 20.1204C40.5871 20.5008 41.1651 20.7618 41.7793 20.8831C42.3935 21.0044 43.0274 20.9827 43.6319 20.8199C44.2364 20.657 44.7953 20.3573 45.2655 19.9438C45.7356 19.5304 46.1043 19.0144 46.3431 18.4356C46.5819 17.8569 46.6844 17.231 46.6426 16.6064C46.6009 15.9817 46.416 15.375 46.1022 14.8333L48.8289 12.1065H67.899V24.2718H54.9535C54.6989 23.3142 54.1046 22.4818 53.2815 21.9301C52.4584 21.3784 51.4626 21.1449 50.48 21.2733C49.4975 21.4017 48.5952 21.8831 47.9414 22.6278C47.2877 23.3725 46.9272 24.3296 46.9272 25.3206C46.9272 26.3115 47.2877 27.2686 47.9414 28.0133C48.5952 28.758 49.4975 29.2394 50.48 29.3678C51.4626 29.4962 52.4584 29.2628 53.2815 28.711C54.1046 28.1593 54.6989 27.327 54.9535 26.3693H67.8948V67.899H57.8564V48.3675C57.8564 48.0892 57.7463 47.8223 57.5502 47.625L54.534 44.6172C54.898 43.9965 55.0892 43.2897 55.0877 42.5701C55.087 41.6724 54.7901 40.8001 54.243 40.0884C53.6959 39.3767 52.9293 38.8655 52.062 38.634C51.1947 38.4024 50.2753 38.4635 49.4463 38.8079C48.6173 39.1522 47.9251 39.7604 47.477 40.5383C47.029 41.3161 46.8502 42.2201 46.9683 43.1099C47.0864 43.9998 47.4948 44.8258 48.1302 45.4598C48.7657 46.0939 49.5926 46.5005 50.4827 46.6166C51.3728 46.7328 52.2763 46.552 53.0532 46.1022L55.7505 48.7995V67.899H43.6272V54.9535C44.5849 54.6989 45.4172 54.1046 45.9689 53.2815C46.5207 52.4584 46.7541 51.4626 46.6257 50.48C46.4973 49.4975 46.0159 48.5952 45.2712 47.9414C44.5265 47.2877 43.5694 46.9272 42.5785 46.9272C41.5875 46.9272 40.6305 47.2877 39.8858 47.9414C39.1411 48.5952 38.6596 49.4975 38.5312 50.48C38.4028 51.4626 38.6363 52.4584 39.188 53.2815C39.7397 54.1046 40.5721 54.6989 41.5297 54.9535V67.8948H0V57.8899H19.5148C19.793 57.89 20.06 57.7799 20.2573 57.5837L23.2776 54.5634C24.1258 55.0674 25.1283 55.2457 26.0982 55.0651C27.0682 54.8845 27.9393 54.3573 28.5493 53.5819C29.1592 52.8064 29.4663 51.8355 29.4132 50.8503C29.3601 49.8651 28.9506 48.9329 28.2609 48.2274C27.5712 47.5219 26.6485 47.0913 25.6647 47.0159C24.681 46.9406 23.7034 47.2255 22.9143 47.8177C22.1252 48.4099 21.5784 49.2689 21.3759 50.2345C21.1734 51.2001 21.3289 52.2064 21.8136 53.0658L19.0827 55.7925H0V43.6272H12.9413C13.1959 44.5849 13.7902 45.4172 14.6134 45.9689C15.4365 46.5207 16.4322 46.7541 17.4148 46.6257C18.3974 46.4973 19.2997 46.0159 19.9534 45.2712C20.6071 44.5265 20.9676 43.5694 20.9676 42.5785C20.9676 41.5875 20.6071 40.6305 19.9534 39.8858C19.2997 39.1411 18.3974 38.6596 17.4148 38.5312C16.4322 38.4028 15.4365 38.6363 14.6134 39.188C13.7902 39.7397 13.1959 40.5721 12.9413 41.5297H0V0H10.0217V19.5148C10.022 19.6529 10.0496 19.7896 10.1028 19.917C10.1561 20.0444 10.234 20.1601 10.3321 20.2573L13.3524 23.2818C12.85 24.1351 12.6753 25.1421 12.8609 26.1148C13.0465 27.0875 13.5797 27.9594 14.361 28.5677C15.1423 29.1761 16.1183 29.4794 17.1068 29.4209C18.0953 29.3625 19.0287 28.9463 19.7329 28.2501C20.4371 27.5539 20.8638 26.6252 20.9335 25.6375C21.0032 24.6497 20.711 23.6703 20.1116 22.8822C19.5121 22.094 18.6463 21.5509 17.6758 21.3543C16.7053 21.1577 15.6964 21.3209 14.8374 21.8136L12.1191 19.0995V0H24.2844V12.9413C23.3256 13.196 22.4922 13.7907 21.9397 14.6147C21.3871 15.4386 21.1533 16.4354 21.2817 17.4191C21.4101 18.4028 21.892 19.3062 22.6374 19.9607C23.3829 20.6152 24.3411 20.9762 25.3331 20.9762C26.3252 20.9762 27.2833 20.6152 28.0288 19.9607C28.7743 19.3062 29.2562 18.4028 29.3846 17.4191C29.513 16.4354 29.2791 15.4386 28.7266 14.6147C28.1741 13.7907 27.3407 13.196 26.3819 12.9413V0H67.9116V10.0091H48.3968C48.1188 10.01 47.8522 10.1199 47.6543 10.3153L44.6172 13.3524C43.9968 12.9927 43.2925 12.8029 42.5753 12.802C41.8581 12.801 41.1534 12.9891 40.532 13.3472C39.9106 13.7053 39.3946 14.2208 39.0358 14.8418C38.6771 15.4628 38.4883 16.1674 38.4884 16.8846V16.8846Z" fill="url(#paint0_linear)"/>
<path d="M93.7817 24.1724V5.07747H98.6174C99.3921 5.07332 100.165 5.14417 100.926 5.28903C101.594 5.41652 102.231 5.67318 102.8 6.04461C103.35 6.41622 103.784 6.93592 104.051 7.54367C104.37 8.33196 104.518 9.1785 104.487 10.028C104.502 10.7 104.389 11.3688 104.154 11.9985C103.964 12.5041 103.637 12.9475 103.211 13.28C102.766 13.6116 102.248 13.8313 101.7 13.9207C102.378 14.0028 103.022 14.2613 103.568 14.6703C104.078 15.0787 104.469 15.6176 104.698 16.2298C104.964 16.9781 105.092 17.7689 105.073 18.563C105.09 19.4094 104.967 20.2528 104.71 21.0594C104.495 21.7184 104.126 22.317 103.634 22.8063C103.139 23.2751 102.544 23.6264 101.894 23.8339C101.11 24.072 100.294 24.1862 99.4757 24.1724H93.7817ZM97.6744 12.7843H98.6416C99.1674 12.8146 99.6926 12.7149 100.171 12.4942C100.515 12.2974 100.772 11.9778 100.89 11.5996C101.034 11.1215 101.101 10.6238 101.09 10.1247C101.112 9.63963 101.01 9.15682 100.793 8.72237C100.598 8.36649 100.28 8.09368 99.8988 7.9547C99.412 7.78332 98.8976 7.70339 98.3817 7.71896H97.6744V12.7843ZM97.6744 21.4402H98.7564C99.1256 21.4811 99.4992 21.4364 99.8483 21.3095C100.197 21.1827 100.512 20.9771 100.769 20.7088C101.187 20.0569 101.382 19.2869 101.325 18.5146C101.35 17.8994 101.262 17.2848 101.065 16.7012C100.919 16.2794 100.622 15.9264 100.231 15.7099C99.7501 15.4763 99.2183 15.3662 98.6839 15.3896H97.6744V21.4402Z" fill="black"/>
<path d="M113.161 24.4323C112.004 24.4902 110.854 24.2288 109.836 23.6767C109.023 23.1764 108.403 22.4159 108.077 21.5188C107.703 20.441 107.524 19.3048 107.551 18.164V11.0435C107.524 9.90476 107.703 8.77049 108.077 7.69479C108.403 6.80697 109.024 6.05799 109.836 5.57313C110.884 5.08722 112.024 4.8355 113.179 4.8355C114.333 4.8355 115.474 5.08722 116.522 5.57313C117.336 6.05694 117.959 6.80604 118.287 7.69479C118.667 8.76486 118.848 9.89597 118.818 11.0314V18.164C118.846 19.3053 118.666 20.4422 118.287 21.5188C117.964 22.4195 117.34 23.1815 116.522 23.6767C115.49 24.2283 114.329 24.4895 113.161 24.4323ZM113.161 21.6276C113.56 21.6616 113.957 21.538 114.267 21.2831C114.516 21.0334 114.681 20.7122 114.738 20.3643C114.819 19.9663 114.859 19.5613 114.859 19.1554V10.1005C114.86 9.69451 114.82 9.28946 114.738 8.89162C114.677 8.54866 114.512 8.23252 114.267 7.98493C113.957 7.73003 113.56 7.60637 113.161 7.64039C112.775 7.61114 112.393 7.73489 112.097 7.98493C111.852 8.23252 111.687 8.54866 111.625 8.89162C111.546 9.28968 111.508 9.69472 111.511 10.1005V19.1312C111.511 19.5363 111.545 19.9407 111.613 20.3401C111.664 20.6876 111.825 21.0095 112.073 21.2589C112.372 21.5208 112.764 21.6534 113.161 21.6276Z" fill="black"/>
<path d="M120.644 24.1724V21.416C121.05 21.4234 121.455 21.3869 121.853 21.3072C122.165 21.2442 122.443 21.0676 122.633 20.8116C122.873 20.445 123.037 20.0339 123.116 19.6027C123.265 18.8824 123.37 18.1536 123.43 17.4206C123.521 16.5078 123.606 15.3533 123.702 13.9509L124.337 5.06538H134.075V24.1724H130.206V8.06955H127.831L127.426 14.5977C127.335 16.1028 127.227 17.4145 127.112 18.5207C127.024 19.4673 126.841 20.4028 126.568 21.3133C126.371 21.9976 126.005 22.6213 125.504 23.1267C124.98 23.6061 124.33 23.925 123.63 24.0454C122.644 24.2136 121.641 24.2562 120.644 24.1724Z" fill="black"/>
<path d="M142.864 24.4323C141.707 24.4902 140.557 24.2288 139.539 23.6767C138.726 23.1764 138.106 22.4159 137.78 21.5188C137.406 20.441 137.228 19.3048 137.254 18.164V11.0435C137.228 9.90476 137.406 8.77049 137.78 7.69479C138.106 6.80697 138.727 6.05799 139.539 5.57313C140.587 5.08722 141.727 4.8355 142.882 4.8355C144.037 4.8355 145.177 5.08722 146.225 5.57313C147.039 6.05694 147.662 6.80604 147.99 7.69479C148.371 8.76486 148.551 9.89597 148.522 11.0314V18.164C148.55 19.3053 148.369 20.4422 147.99 21.5188C147.667 22.4195 147.043 23.1815 146.225 23.6767C145.194 24.2283 144.032 24.4895 142.864 24.4323ZM142.864 21.6276C143.263 21.6616 143.66 21.538 143.97 21.2831C144.219 21.0334 144.384 20.7122 144.442 20.3643C144.522 19.9663 144.562 19.5613 144.562 19.1554V10.1005C144.563 9.69451 144.523 9.28946 144.442 8.89162C144.38 8.54866 144.215 8.23252 143.97 7.98493C143.66 7.73003 143.263 7.60637 142.864 7.64039C142.478 7.61114 142.096 7.73489 141.8 7.98493C141.555 8.23252 141.39 8.54866 141.329 8.89162C141.249 9.28968 141.211 9.69472 141.214 10.1005V19.1312C141.214 19.5363 141.248 19.9407 141.316 20.3401C141.368 20.6876 141.529 21.0095 141.776 21.2589C142.076 21.5208 142.467 21.6534 142.864 21.6276Z" fill="black"/>
<path d="M151.677 24.1724V5.07746H160.188V7.97887H155.57V24.1724H151.677Z" fill="black"/>
<path d="M168.015 24.4323C166.859 24.4893 165.709 24.2279 164.691 23.6767C163.877 23.1791 163.258 22.4174 162.938 21.5188C162.558 20.4422 162.378 19.3053 162.406 18.164V11.0435C162.378 9.90418 162.558 8.76932 162.938 7.69479C163.259 6.80615 163.879 6.05638 164.691 5.57313C165.738 5.08722 166.879 4.8355 168.034 4.8355C169.188 4.8355 170.329 5.08722 171.376 5.57313C172.191 6.05694 172.814 6.80604 173.141 7.69479C173.522 8.76486 173.702 9.89597 173.673 11.0314V18.164C173.701 19.3053 173.521 20.4422 173.141 21.5188C172.818 22.4195 172.195 23.1815 171.376 23.6767C170.345 24.2283 169.184 24.4895 168.015 24.4323ZM168.015 21.6276C168.415 21.6616 168.812 21.538 169.122 21.2831C169.371 21.0334 169.536 20.7122 169.593 20.3643C169.673 19.9663 169.714 19.5613 169.714 19.1554V10.1005C169.715 9.69451 169.674 9.28946 169.593 8.89162C169.531 8.54866 169.367 8.23252 169.122 7.98493C168.812 7.73003 168.415 7.60637 168.015 7.64039C167.631 7.61077 167.251 7.73467 166.958 7.98493C166.708 8.22941 166.543 8.54698 166.486 8.89162C166.402 9.28902 166.362 9.69438 166.365 10.1005V19.1312C166.365 19.5366 166.401 19.9413 166.474 20.3401C166.523 20.6884 166.684 21.0111 166.933 21.2589C167.081 21.3884 167.252 21.4876 167.438 21.5509C167.623 21.6142 167.82 21.6402 168.015 21.6276Z" fill="black"/>
<path d="M175.747 28.1558V21.3677H176.351C176.712 21.2352 177.041 21.0294 177.318 20.7632C177.649 20.4248 177.922 20.0348 178.128 19.6087C178.407 19.0263 178.632 18.4192 178.799 17.7953C179.035 16.9283 179.209 16.0456 179.319 15.1538C179.464 14.1202 179.579 12.9113 179.676 11.5271L180.147 5.06538H188.845V21.3677H190.918V28.1558H188.301L188.09 24.1724H178.672L178.436 28.1558H175.747ZM180.014 21.3677H185.176V7.85799H183.127L182.903 12.0106C182.827 13.4251 182.716 14.634 182.571 15.6374C182.465 16.4712 182.295 17.2957 182.063 18.1036C181.915 18.6523 181.713 19.1848 181.459 19.6933C181.275 20.0581 181.037 20.3924 180.751 20.6846L180.014 21.3677Z" fill="black"/>
<path d="M198.619 24.4323C197.445 24.4936 196.278 24.2144 195.258 23.6284C194.445 23.1061 193.835 22.3211 193.53 21.4039C193.18 20.3354 193.012 19.2156 193.034 18.0915V11.2309C193.008 10.0768 193.176 8.92652 193.53 7.82776C193.833 6.92412 194.443 6.15462 195.252 5.6517C196.277 5.07122 197.443 4.79054 198.619 4.84173C199.732 4.78502 200.841 5.02049 201.835 5.52477C202.583 5.96443 203.156 6.65023 203.455 7.46508C203.796 8.39361 203.96 9.37766 203.939 10.3665V11.9683H200.191V10.1549C200.193 9.75099 200.171 9.34728 200.124 8.94601C200.092 8.59911 199.955 8.27022 199.732 8.00305C199.586 7.86713 199.413 7.76391 199.224 7.70032C199.036 7.63672 198.836 7.61422 198.637 7.63433C198.433 7.6156 198.227 7.6398 198.032 7.70537C197.837 7.77095 197.659 7.87646 197.507 8.01514C197.259 8.28678 197.103 8.62923 197.06 8.99437C196.991 9.43424 196.959 9.87901 196.963 10.3242V18.9861C196.956 19.457 197 19.9273 197.096 20.3884C197.153 20.7405 197.325 21.0637 197.586 21.3072C197.886 21.5372 198.26 21.6509 198.637 21.6276C198.831 21.6473 199.027 21.6252 199.212 21.5626C199.396 21.5 199.565 21.3985 199.707 21.2649C199.937 20.9861 200.078 20.6451 200.112 20.2857C200.167 19.8547 200.193 19.4205 200.191 18.9861V17.1364H203.963V18.7141C203.981 19.7214 203.821 20.724 203.491 21.6759C203.193 22.5148 202.62 23.2283 201.865 23.7009C200.874 24.2469 199.749 24.5006 198.619 24.4323Z" fill="black"/>
<path d="M206.912 24.1724V5.07746H210.799V12.8327H211.343L214.293 5.07746H218.155L214.595 14.0597L218.343 24.1724H214.335L211.313 15.6374H210.769V24.1724H206.912Z" fill="black"/>
<path d="M220.585 24.1724V5.07746H223.698V16.532L228.74 5.0956H231.29V24.1724H228.129V12.5486L223.039 24.1724H220.585Z" fill="black"/>
<path d="M234.778 24.1724V5.07747H237.909V16.532L242.956 5.0956H245.501V24.1724H242.322V12.5486L237.226 24.1724H234.778ZM240.436 3.54818C239.959 3.57587 239.481 3.50895 239.029 3.35127C238.578 3.19359 238.163 2.94827 237.806 2.6294C237.476 2.27974 237.221 1.86598 237.056 1.41371C236.892 0.96145 236.822 0.480294 236.851 0H238.876C238.846 0.455324 238.971 0.907478 239.233 1.28146C239.388 1.44123 239.578 1.56348 239.787 1.6389C239.997 1.71432 240.221 1.74092 240.442 1.71667C240.664 1.74079 240.889 1.71295 241.099 1.63533C241.309 1.5577 241.498 1.43243 241.651 1.26937C241.915 0.90097 242.043 0.452344 242.013 0H244.02C244.047 0.481045 243.975 0.962415 243.808 1.41457C243.642 1.86672 243.385 2.28012 243.053 2.6294C242.7 2.94875 242.286 3.19448 241.837 3.35224C241.388 3.50999 240.911 3.5766 240.436 3.54818Z" fill="black"/>
<path d="M255.378 24.1724V5.07746H259.271V12.8327H259.809L262.759 5.07746H266.627L263.067 14.0597L266.814 24.1724H262.831L259.809 15.6374H259.271V24.1724H255.378Z" fill="black"/>
<path d="M274.334 24.4323C273.177 24.4902 272.027 24.2288 271.009 23.6767C270.196 23.1764 269.577 22.4159 269.25 21.5188C268.88 20.4403 268.706 19.304 268.737 18.164V11.0435C268.71 9.90477 268.888 8.77049 269.263 7.69479C269.589 6.80697 270.21 6.058 271.022 5.57313C272.069 5.08722 273.21 4.8355 274.364 4.8355C275.519 4.8355 276.66 5.08722 277.707 5.57313C278.521 6.05694 279.144 6.80604 279.472 7.69479C279.853 8.76486 280.033 9.89597 280.004 11.0314V18.164C280.032 19.3053 279.852 20.4422 279.472 21.5188C279.149 22.4195 278.526 23.1815 277.707 23.6767C276.672 24.2305 275.506 24.4917 274.334 24.4323ZM274.334 21.6276C274.734 21.6616 275.131 21.538 275.44 21.2831C275.689 21.0334 275.854 20.7122 275.912 20.3643C275.992 19.9663 276.032 19.5613 276.033 19.1554V10.1005C276.033 9.69451 275.993 9.28946 275.912 8.89162C275.85 8.54866 275.685 8.23252 275.44 7.98493C275.131 7.73003 274.734 7.60637 274.334 7.64039C273.948 7.61114 273.566 7.73489 273.27 7.98493C273.025 8.23252 272.86 8.54866 272.799 8.89162C272.72 9.28968 272.681 9.69472 272.684 10.1005V19.1312C272.684 19.5363 272.718 19.9407 272.787 20.3401C272.838 20.6876 272.999 21.0095 273.246 21.2589C273.546 21.5208 273.937 21.6534 274.334 21.6276Z" fill="black"/>
<path d="M281.805 24.1724V21.416C282.211 21.4234 282.616 21.3869 283.014 21.3072C283.326 21.2442 283.604 21.0676 283.794 20.8116C284.034 20.445 284.199 20.0339 284.277 19.6027C284.426 18.8824 284.531 18.1536 284.592 17.4206C284.676 16.5058 284.767 15.3493 284.864 13.9509L285.468 5.06538H295.206V24.1724H291.337V8.06955H288.962L288.557 14.5977C288.466 16.1028 288.357 17.4145 288.243 18.5207C288.155 19.4673 287.972 20.4028 287.699 21.3133C287.502 21.9976 287.136 22.6213 286.635 23.1267C286.111 23.6061 285.461 23.925 284.761 24.0454C283.785 24.211 282.792 24.2537 281.805 24.1724Z" fill="black"/>
<path d="M297.412 24.1724V21.416C297.818 21.4228 298.223 21.3863 298.621 21.3072C298.932 21.2455 299.209 21.0685 299.395 20.8116C299.64 20.4477 299.805 20.0355 299.878 19.6027C300.033 18.8831 300.14 18.1542 300.199 17.4206C300.283 16.5058 300.374 15.3493 300.471 13.9509L301.075 5.06538H310.813V24.1724H306.945V8.06955H304.563L304.164 14.5977C304.067 16.1028 303.965 17.4145 303.844 18.5207C303.76 19.4675 303.58 20.4032 303.306 21.3133C303.106 21.9962 302.741 22.6191 302.242 23.1267C301.717 23.605 301.067 23.9237 300.368 24.0454C299.392 24.211 298.399 24.2537 297.412 24.1724Z" fill="black"/>
<path d="M314.313 24.1724V5.07746H322.636V7.76731H318.206V12.8327H321.621V15.5467H318.206V21.5309H322.685V24.1724H314.313Z" fill="black"/>
<path d="M324.117 28.1558V21.3677H324.722C325.082 21.2352 325.412 21.0294 325.689 20.7632C326.02 20.4248 326.293 20.0348 326.499 19.6087C326.783 19.0277 327.01 18.4204 327.176 17.7953C327.407 16.9274 327.578 16.0449 327.69 15.1538C327.835 14.1202 327.95 12.9113 328.046 11.5271L328.518 5.06538H337.216V21.3677H339.289V28.1558H336.672L336.436 24.1724H327.067L326.831 28.1558H324.117ZM328.385 21.3677H333.547V7.85799H331.498L331.286 12.0106C331.21 13.4251 331.099 14.634 330.954 15.6374C330.846 16.4705 330.679 17.2948 330.452 18.1036C330.304 18.6523 330.102 19.1849 329.848 19.6933C329.664 20.0581 329.426 20.3924 329.14 20.6846C328.868 20.9143 328.621 21.1561 328.385 21.3677Z" fill="black"/>
<path d="M340.389 24.1724L344.463 14.5554L340.553 5.07746H344.179L347.576 14.1141H347.74V5.07746H350.877V14.1141H351.064L354.437 5.10769H358.064L354.129 14.5856L358.233 24.2026H354.721L351.064 14.8395H350.877V24.1724H347.74V14.8395H347.576L343.901 24.1724H340.389Z" fill="black"/>
<path d="M372.099 24.4323C370.925 24.4936 369.758 24.2144 368.739 23.6284C367.925 23.1061 367.315 22.3211 367.01 21.4039C366.66 20.3354 366.493 19.2156 366.514 18.0915V11.2309C366.488 10.0768 366.656 8.92652 367.01 7.82776C367.307 6.92781 367.908 6.15881 368.708 5.6517C369.74 5.06678 370.915 4.78594 372.099 4.84173C373.213 4.78502 374.321 5.02049 375.315 5.52477C376.064 5.96443 376.636 6.65023 376.935 7.46508C377.276 8.39361 377.44 9.37766 377.419 10.3665V11.9683H373.647V10.1549C373.646 9.75106 373.624 9.34752 373.58 8.94601C373.548 8.59911 373.411 8.27022 373.187 8.00305C373.042 7.86713 372.869 7.76391 372.68 7.70032C372.492 7.63672 372.291 7.61422 372.093 7.63433C371.889 7.6156 371.683 7.6398 371.488 7.70537C371.293 7.77095 371.115 7.87646 370.963 8.01514C370.715 8.28678 370.559 8.62923 370.516 8.99437C370.447 9.43424 370.415 9.87901 370.419 10.3242V18.9861C370.413 19.4567 370.455 19.9266 370.546 20.3884C370.607 20.7403 370.781 21.0627 371.042 21.3072C371.342 21.5382 371.715 21.652 372.093 21.6276C372.287 21.6473 372.483 21.6252 372.668 21.5626C372.852 21.5 373.021 21.3985 373.163 21.2649C373.388 20.9834 373.529 20.6438 373.568 20.2857C373.623 19.8547 373.649 19.4205 373.647 18.9861V17.1364H377.419V18.7141C377.437 19.7214 377.277 20.724 376.947 21.6759C376.649 22.5148 376.076 23.2283 375.321 23.7009C374.337 24.2416 373.221 24.495 372.099 24.4323Z" fill="black"/>
<path d="M380.32 24.1724V5.07747H385.156C385.932 5.07305 386.708 5.1439 387.471 5.28904C388.139 5.41652 388.775 5.67318 389.345 6.04461C389.893 6.41658 390.325 6.93635 390.59 7.54367C390.914 8.33043 391.064 9.1778 391.031 10.028C391.046 10.7 390.934 11.3688 390.699 11.9985C390.508 12.5042 390.182 12.9475 389.756 13.28C389.311 13.6116 388.792 13.8313 388.245 13.9207C388.922 14.0028 389.566 14.2613 390.112 14.6703C390.623 15.0787 391.013 15.6176 391.243 16.2298C391.509 16.9781 391.636 17.7689 391.617 18.563C391.634 19.4094 391.512 20.2528 391.255 21.0594C391.039 21.7184 390.67 22.317 390.179 22.8063C389.683 23.2751 389.088 23.6264 388.438 23.8339C387.655 24.072 386.839 24.1862 386.02 24.1724H380.32ZM384.189 12.7843H385.15C385.678 12.8153 386.205 12.7157 386.685 12.4942C387.029 12.2974 387.286 11.9778 387.404 11.5996C387.548 11.1215 387.615 10.6238 387.604 10.1247C387.627 9.63964 387.525 9.15682 387.308 8.72237C387.112 8.3665 386.794 8.09369 386.413 7.95471C385.924 7.78353 385.408 7.70362 384.89 7.71896H384.189V12.7843ZM384.189 21.4402H385.271C385.64 21.4811 386.013 21.4364 386.362 21.3095C386.711 21.1827 387.027 20.9771 387.283 20.7088C387.698 20.0555 387.893 19.2866 387.84 18.5146C387.864 17.8994 387.776 17.2848 387.58 16.7012C387.429 16.2819 387.133 15.9303 386.745 15.7099C386.264 15.4763 385.732 15.3662 385.198 15.3896H384.189V21.4402Z" fill="black"/>
<path d="M393.189 24.1724L396.882 15.6616C396.109 15.2047 395.48 14.5383 395.069 13.7394C394.58 12.7978 394.336 11.7477 394.362 10.6869C394.302 9.54358 394.546 8.40482 395.069 7.3865C395.57 6.57765 396.334 5.96531 397.233 5.6517C398.357 5.26147 399.543 5.07719 400.733 5.10768H405.405V24.1724H401.537V16.532H400.285L397.39 24.1663L393.189 24.1724ZM400.854 13.7998H401.537V7.75522H400.781C400.401 7.73009 400.02 7.78309 399.661 7.91097C399.303 8.03884 398.974 8.23887 398.696 8.4987C398.178 9.11447 397.924 9.90928 397.988 10.711C397.946 11.5038 398.158 12.2893 398.593 12.9536C399.016 13.5097 399.766 13.7998 400.854 13.7998Z" fill="black"/>
<path d="M413.559 24.5048C412.504 24.5557 411.456 24.3063 410.537 23.7855C409.784 23.3115 409.215 22.5952 408.923 21.7545C408.581 20.7845 408.417 19.7606 408.44 18.7322V18.0673H412.066V18.7745C412.025 19.4647 412.135 20.1556 412.387 20.7995C412.5 21.0159 412.676 21.1929 412.892 21.3073C413.108 21.4217 413.353 21.468 413.596 21.4402C413.764 21.4515 413.933 21.429 414.093 21.3739C414.253 21.3189 414.4 21.2325 414.526 21.1198C414.759 20.8635 414.911 20.5437 414.962 20.2011C415.047 19.7061 415.085 19.2042 415.076 18.702C415.118 17.9281 414.955 17.1569 414.605 16.4655C414.291 15.9275 413.65 15.6495 412.677 15.6132C412.609 15.6015 412.539 15.6015 412.471 15.6132H411.685V13.141H412.604C413.577 13.141 414.236 12.8448 414.575 12.337C414.949 11.6711 415.123 10.9113 415.076 10.1489C415.113 9.52201 414.984 8.89661 414.702 8.3355C414.56 8.12623 414.365 7.95939 414.136 7.85289C413.907 7.7464 413.653 7.70427 413.402 7.73104C413.158 7.70481 412.911 7.75384 412.695 7.87156C412.479 7.98929 412.304 8.17012 412.193 8.3899C411.937 8.93689 411.803 9.53292 411.8 10.1368V11.0918H408.174V10.0522C408.141 9.0653 408.364 8.08675 408.82 7.21121C409.231 6.44904 409.863 5.82939 410.634 5.43409C411.498 5.00992 412.452 4.80246 413.414 4.82963C414.396 4.80455 415.369 5.01166 416.255 5.43409C417.022 5.80607 417.655 6.40556 418.069 7.15076C418.505 8.02144 418.713 8.98854 418.673 9.9615C418.708 10.943 418.467 11.9145 417.978 12.7662C417.602 13.4423 416.981 13.9486 416.243 14.1806C416.712 14.35 417.138 14.618 417.494 14.9664C417.886 15.3699 418.18 15.858 418.353 16.393C418.587 17.1166 418.695 17.8752 418.673 18.6355C418.692 19.6834 418.52 20.726 418.165 21.7122C417.866 22.5566 417.305 23.2831 416.563 23.7855C415.655 24.3155 414.61 24.5657 413.559 24.5048Z" fill="black"/>
<path d="M421.599 24.1724V5.07746H424.687V16.532L429.729 5.0956H432.273V24.1724H429.118V12.5486L424.023 24.1724H421.599Z" fill="black"/>
<path d="M93.8301 64.0667V44.9718H96.943V56.4264L101.984 44.99H104.535V64.0849H101.374V52.449L96.2842 64.0667H93.8301Z" fill="black"/>
<path d="M114.43 64.0667V44.9718H117.543V56.4264L122.59 44.99H125.135V64.0849H121.974V52.449L116.884 64.0667H114.43Z" fill="black"/>
<path d="M128.623 64.0667V44.9718H132.516V52.8298H135.882V44.9718H139.775V64.0667H135.882V55.6043H132.516V64.0667H128.623Z" fill="black"/>
<path d="M148.872 64.774V61.8665L148.225 61.9088C147.996 61.9088 147.772 61.9088 147.554 61.9088C146.719 61.9295 145.89 61.7513 145.137 61.389C144.436 61.0431 143.856 60.493 143.474 59.8113C143.041 58.9919 142.832 58.0721 142.87 57.1457V51.6088C142.839 50.7178 143.048 49.8348 143.474 49.052C143.882 48.3464 144.484 47.7733 145.209 47.4018C146.003 46.9925 146.885 46.7849 147.778 46.7973H148.34C148.534 46.7973 148.697 46.7973 148.836 46.8336V43.7327H152.07V46.894C152.209 46.894 152.372 46.894 152.553 46.8578H153.079C153.992 46.8428 154.894 47.0503 155.709 47.4622C156.436 47.83 157.04 48.404 157.443 49.1124C157.865 49.8972 158.073 50.7788 158.048 51.6693V57.2303C158.08 58.1561 157.872 59.0745 157.443 59.896C157.078 60.5671 156.523 61.1158 155.848 61.4736C155.173 61.8258 154.421 62.0044 153.66 61.9935C153.394 61.9935 153.128 61.9935 152.868 61.9935L152.058 61.9451V64.8465L148.872 64.774ZM148.352 59.5152C148.451 59.5211 148.55 59.5211 148.649 59.5152C148.723 59.5219 148.798 59.5219 148.872 59.5152V49.2393L148.588 49.2031H148.286C147.913 49.1898 147.543 49.2842 147.222 49.4751C146.928 49.6695 146.702 49.9505 146.575 50.279C146.412 50.7028 146.336 51.155 146.352 51.6088V57.2424C146.341 57.6702 146.401 58.0969 146.527 58.5057C146.631 58.8285 146.845 59.1045 147.131 59.2855C147.51 59.4704 147.932 59.5498 148.352 59.5152ZM152.692 59.5152C153.085 59.5336 153.476 59.4459 153.823 59.2613C154.103 59.0733 154.315 58.7998 154.427 58.4815C154.571 58.0721 154.639 57.6399 154.627 57.2061V51.5907C154.64 51.1272 154.572 50.665 154.427 50.2246C154.318 49.9015 154.106 49.6232 153.823 49.4328C153.508 49.2562 153.15 49.1704 152.789 49.1849H152.42L152.082 49.2212V59.497H152.372C152.474 59.5095 152.577 59.5155 152.68 59.5152H152.692Z" fill="black"/>
<path d="M166.486 64.3267C165.33 64.3846 164.18 64.1232 163.162 63.5711C162.346 63.0737 161.725 62.3122 161.403 61.4132C161.026 60.3358 160.846 59.1995 160.871 58.0584V50.9379C160.846 49.7988 161.026 48.6644 161.403 47.5892C161.726 46.7001 162.348 45.9505 163.162 45.4675C164.208 44.9817 165.348 44.73 166.501 44.73C167.655 44.73 168.795 44.9817 169.841 45.4675C170.657 45.951 171.282 46.7 171.612 47.5892C171.99 48.66 172.17 49.7906 172.144 50.9258V58.0584C172.169 59.1995 171.989 60.3358 171.612 61.4132C171.287 62.3143 170.661 63.0762 169.841 63.5711C168.812 64.1237 167.652 64.3849 166.486 64.3267ZM166.486 61.522C166.886 61.556 167.283 61.4323 167.592 61.1774C167.841 60.9278 168.006 60.6066 168.064 60.2587C168.142 59.8605 168.18 59.4555 168.179 59.0497V49.9949C168.181 49.5891 168.143 49.1841 168.064 48.786C168.002 48.443 167.838 48.1269 167.592 47.8793C167.283 47.6244 166.886 47.5008 166.486 47.5348C166.1 47.5055 165.718 47.6293 165.422 47.8793C165.177 48.1269 165.013 48.443 164.951 48.786C164.872 49.1841 164.834 49.5891 164.836 49.9949V59.0256C164.833 59.4308 164.868 59.8355 164.939 60.2345C164.99 60.5819 165.151 60.9039 165.398 61.1533C165.698 61.4152 166.089 61.5478 166.486 61.522Z" fill="black"/>
<path d="M175.251 64.0668V44.9719H181.295C182.271 44.9317 183.24 45.1551 184.1 45.6186C184.823 46.0568 185.388 46.7129 185.714 47.4925C186.09 48.4377 186.271 49.4493 186.246 50.4664C186.303 51.5771 186.063 52.6829 185.551 53.67C185.119 54.4128 184.451 54.9895 183.653 55.3081C182.772 55.6466 181.834 55.8108 180.89 55.7917H179.125V64.0668H175.251ZM179.144 53.0595H180.485C180.937 53.0857 181.388 52.9918 181.791 52.7875C182.098 52.5929 182.316 52.2841 182.396 51.9292C182.516 51.4348 182.571 50.9267 182.559 50.418C182.567 49.9274 182.525 49.4372 182.432 48.9552C182.35 48.5851 182.135 48.258 181.827 48.0365C181.4 47.7854 180.907 47.6714 180.413 47.7101H179.071L179.144 53.0595Z" fill="black"/>
<path d="M188.712 64.0667L189.045 44.9718H193.179L195.537 57.0187L198.063 44.9718H202.047L202.373 64.0667H199.544L199.242 51.1252L196.824 64.0667H194.406L191.861 51.0285L191.602 64.0667H188.712Z" fill="black"/>
<path d="M204.742 64.0667L208.442 44.9718H212.758L216.433 64.0667H212.806L212.123 59.8718H209.101L208.369 64.0667H204.742ZM209.5 57.4902H211.784L210.612 49.7773L209.5 57.4902Z" fill="black"/>
<path d="M229.942 68.0501L229.471 64.0667H218.935V44.9718H222.798V61.4252H226.479V44.9718H230.366V61.4252H232.783V68.0743L229.942 68.0501Z" fill="black"/>
<path d="M235.292 64.0667V44.9718H238.405V56.4264L243.452 44.99H245.997V64.0849H242.836V52.449L237.746 64.0667H235.292Z" fill="black"/>
<path d="M254.768 64.3267C253.611 64.3846 252.461 64.1232 251.443 63.5711C250.63 63.0708 250.01 62.3103 249.684 61.4132C249.309 60.3354 249.131 59.1991 249.158 58.0584V50.9379C249.131 49.7991 249.31 48.6648 249.684 47.5891C250.01 46.7013 250.631 45.9524 251.443 45.4675C252.49 44.9816 253.631 44.7299 254.786 44.7299C255.94 44.7299 257.081 44.9816 258.128 45.4675C258.943 45.9513 259.566 46.7004 259.893 47.5891C260.274 48.6592 260.455 49.7903 260.425 50.9258V58.0584C260.453 59.1997 260.273 60.3365 259.893 61.4132C259.57 62.3139 258.947 63.0759 258.128 63.5711C257.097 64.1227 255.936 64.3838 254.768 64.3267ZM254.768 61.522C255.167 61.556 255.564 61.4323 255.874 61.1774C256.123 60.9278 256.288 60.6065 256.345 60.2586C256.425 59.8607 256.466 59.4557 256.466 59.0497V49.9949C256.467 49.5889 256.426 49.1839 256.345 48.786C256.283 48.443 256.119 48.1269 255.874 47.8793C255.564 47.6244 255.167 47.5007 254.768 47.5347C254.382 47.5055 253.999 47.6292 253.704 47.8793C253.458 48.1269 253.294 48.443 253.232 48.786C253.154 49.1841 253.115 49.5891 253.117 49.9949V59.0255C253.118 59.4307 253.152 59.8351 253.22 60.2345C253.271 60.5819 253.432 60.9039 253.68 61.1532C253.979 61.4152 254.37 61.5477 254.768 61.522Z" fill="black"/>
<path d="M263.581 64.0667V44.9718H267.473V52.8298H270.846V44.9718H274.733V64.0667H270.846V55.6043H267.473V64.0667H263.581Z" fill="black"/>
<path d="M278.245 64.0667V44.9718H282.138V52.8298H285.504V44.9718H289.397V64.0667H285.504V55.6043H282.138V64.0667H278.245Z" fill="black"/>
<path d="M292.915 64.0667V44.9718H296.802V53.0112H297.702C298.782 52.9767 299.858 53.1703 300.858 53.5794C301.686 53.9339 302.369 54.5609 302.792 55.3565C303.27 56.3437 303.496 57.4339 303.451 58.5299C303.482 59.4729 303.33 60.4131 303.004 61.2983C302.744 61.962 302.312 62.5442 301.752 62.9848C301.19 63.404 300.542 63.693 299.854 63.831C299.059 63.9948 298.248 64.0739 297.436 64.0667H292.915ZM296.802 61.4978H297.467C297.953 61.5193 298.437 61.413 298.869 61.1895C299.236 60.9694 299.508 60.6202 299.631 60.2103C299.805 59.6432 299.876 59.0496 299.842 58.4573C299.864 57.7571 299.686 57.0651 299.328 56.4626C298.996 55.973 298.361 55.7252 297.418 55.7252H296.814L296.802 61.4978ZM305.125 64.0667V44.9718H309.018V64.0667H305.125Z" fill="black"/>
<path d="M311.2 64.0667L314.972 53.8574L311.345 44.9718H315.02L317.281 50.4664L319.191 44.9718H322.473L318.979 54.7581L322.8 64.0667H319.173L316.676 58.0584L314.482 64.0667H311.2Z" fill="black"/>
<path d="M333.148 64.0667V47.8732H330.204V44.9718H339.96V47.8732H337.041V64.0667H333.148Z" fill="black"/>
<path d="M342.203 64.0667V44.9718H350.52V47.6617H346.108V52.7271H349.529V55.4411H346.108V61.4252H350.587V64.0667H342.203Z" fill="black"/>
<path d="M351.796 64.0667L355.567 53.8574L351.941 44.9718H355.622L357.882 50.4664L359.793 44.9718H363.069L359.581 54.7581L363.401 64.0667H359.774L357.278 58.0584L355.084 64.0667H351.796Z" fill="black"/>
<path d="M365.583 64.0667V44.9718H369.476V52.8298H372.849V44.9718H376.736V64.0667H372.849V55.6043H369.476V64.0667H365.583Z" fill="black"/>
<path d="M385.53 64.3267C384.374 64.3846 383.224 64.1232 382.206 63.5711C381.393 63.0708 380.773 62.3103 380.447 61.4132C380.072 60.3354 379.894 59.1991 379.921 58.0584V50.9379C379.894 49.7991 380.072 48.6648 380.447 47.5891C380.773 46.7013 381.394 45.9524 382.206 45.4675C383.253 44.9816 384.394 44.7299 385.549 44.7299C386.703 44.7299 387.844 44.9816 388.891 45.4675C389.706 45.9513 390.329 46.7004 390.656 47.5891C391.037 48.6592 391.217 49.7903 391.188 50.9258V58.0584C391.216 59.1997 391.036 60.3365 390.656 61.4132C390.333 62.3139 389.71 63.0759 388.891 63.5711C387.86 64.1227 386.698 64.3838 385.53 64.3267ZM385.53 61.522C385.93 61.556 386.327 61.4323 386.637 61.1774C386.886 60.9278 387.051 60.6065 387.108 60.2586C387.188 59.8607 387.229 59.4557 387.229 59.0497V49.9949C387.229 49.5889 387.189 49.1839 387.108 48.786C387.046 48.443 386.882 48.1269 386.637 47.8793C386.327 47.6244 385.93 47.5007 385.53 47.5347C385.144 47.5055 384.762 47.6292 384.467 47.8793C384.221 48.1269 384.057 48.443 383.995 48.786C383.916 49.1841 383.878 49.5891 383.88 49.9949V59.0255C383.881 59.4307 383.915 59.8351 383.983 60.2345C384.034 60.5819 384.195 60.9039 384.442 61.1532C384.742 61.4152 385.133 61.5477 385.53 61.522Z" fill="black"/>
<path d="M393.002 64.0668V61.3104C393.407 61.3177 393.813 61.2813 394.211 61.2016C394.523 61.1386 394.801 60.962 394.99 60.706C395.231 60.3395 395.395 59.9284 395.474 59.497C395.623 58.7789 395.728 58.0521 395.788 57.321C395.873 56.4082 395.97 55.2537 396.06 53.8514L396.695 44.9658H406.433V64.0607H402.564V47.9639H400.189L399.784 54.4921C399.693 55.9972 399.584 57.3089 399.469 58.4151C399.381 59.3616 399.199 60.2971 398.925 61.2077C398.729 61.892 398.363 62.5157 397.861 63.021C397.338 63.5005 396.687 63.8194 395.988 63.9398C395.002 64.1079 393.998 64.1506 393.002 64.0668Z" fill="black"/>
<path d="M415.234 64.3267C414.077 64.3846 412.927 64.1232 411.909 63.5711C411.096 63.0708 410.476 62.3103 410.15 61.4132C409.775 60.3354 409.597 59.1991 409.624 58.0584V50.9379C409.597 49.7991 409.776 48.6648 410.15 47.5891C410.476 46.7013 411.097 45.9524 411.909 45.4675C412.956 44.9816 414.097 44.7299 415.252 44.7299C416.406 44.7299 417.547 44.9816 418.594 45.4675C419.409 45.9513 420.032 46.7004 420.359 47.5891C420.74 48.6592 420.921 49.7903 420.891 50.9258V58.0584C420.919 59.1997 420.739 60.3365 420.359 61.4132C420.037 62.3139 419.413 63.0759 418.594 63.5711C417.563 64.1227 416.402 64.3838 415.234 64.3267ZM415.234 61.522C415.633 61.556 416.03 61.4323 416.34 61.1774C416.589 60.9278 416.754 60.6065 416.811 60.2586C416.891 59.8607 416.932 59.4557 416.932 59.0497V49.9949C416.933 49.5889 416.892 49.1839 416.811 48.786C416.749 48.443 416.585 48.1269 416.34 47.8793C416.03 47.6244 415.633 47.5007 415.234 47.5347C414.848 47.5055 414.465 47.6292 414.17 47.8793C413.925 48.1269 413.76 48.443 413.698 48.786C413.62 49.1841 413.581 49.5891 413.583 49.9949V59.0255C413.584 59.4307 413.618 59.8351 413.686 60.2345C413.737 60.5819 413.898 60.9039 414.146 61.1532C414.445 61.4152 414.836 61.5477 415.234 61.522Z" fill="black"/>
<path d="M424.047 64.0667V44.9718H432.545V47.8732H427.927V64.0667H424.047Z" fill="black"/>
<path d="M435.102 64.0667V44.9718H438.215V56.4264L443.262 44.99H445.807V64.0849H442.646V52.449L437.556 64.0667H435.102Z" fill="black"/>
<path d="M449.295 64.0667V44.9718H452.408V56.4264L457.455 44.99H460V64.0849H456.839V52.449L451.749 64.0667H449.295ZM454.953 43.4426C454.476 43.4702 453.998 43.4033 453.546 43.2456C453.095 43.088 452.679 42.8426 452.323 42.5238C451.993 42.1741 451.737 41.7604 451.573 41.3081C451.409 40.8558 451.339 40.3747 451.368 39.8944H453.399C453.367 40.349 453.49 40.8011 453.75 41.1758C453.905 41.3349 454.095 41.4566 454.304 41.532C454.514 41.6074 454.738 41.6344 454.959 41.611C455.181 41.6356 455.406 41.608 455.616 41.5304C455.826 41.4527 456.015 41.3272 456.168 41.1637C456.434 40.7961 456.564 40.3474 456.536 39.8944H458.537C458.564 40.3754 458.491 40.8568 458.325 41.3089C458.159 41.7611 457.902 42.1745 457.57 42.5238C457.217 42.8434 456.803 43.0893 456.354 43.2471C455.905 43.4049 455.428 43.4713 454.953 43.4426Z" fill="black"/>
<defs>
<linearGradient id="paint0_linear" x1="0" y1="0" x2="67.899" y2="67.899" gradientUnits="userSpaceOnUse">
<stop stop-color="#0034FC"/>
<stop offset="0.25" stop-color="#2226FD"/>
<stop offset="0.76" stop-color="#630BFE"/>
<stop offset="1" stop-color="#7C00FF"/>
</linearGradient>
</defs>
</svg>
